<svg xmlns="http://www.w3.org/2000/svg" width="320" height="72" viewBox="0 0 320 72">
<rect width="320" height="72" rx="10" fill="#0A66C2"/>
<g transform="translate(20 14)">
<rect x="0" y="0" width="44" height="44" rx="7" fill="#fff"/>
<path d="M10 17h4.2v2.1h.1c.6-1.1 2.1-2.5 4.4-2.5 4.7 0 5.6 3.1 5.6 7.2V31h-4.2v-6.4c0-1.5 0-3.5-2.2-3.5-2.2 0-2.5 1.7-2.5 3.4V31H10V17Zm-2.1-5.9a2.5 2.5 0 1 1 0 5 2.5 2.5 0 0 1 0-5ZM6 17h3.8v14H6V17Z" fill="#0A66C2"/>
</g>
<text x="82" y="45" font-family="Arial,sans-serif" font-size="22" font-weight="700" fill="#fff">LET'S CONNECT</text>
<g opacity=".22"><rect x="-80" y="0" width="70" height="72" fill="#fff" transform="skewX(-18)">
<animate attributeName="x" values="-90;350" dur="2.8s" repeatCount="indefinite"/>
</rect></g>
<circle cx="292" cy="36" r="4" fill="#fff" opacity=".8">
<animate attributeName="r" values="3;6;3" dur="1.6s" repeatCount="indefinite"/>
</circle>
</svg>